<?xml version="1.0" ?><svg height="24px" version="1.1" viewBox="0 0 24 24" width="24px" xmlns="http://www.w3.org/2000/svg" xmlns:xlink="http://www.w3.org/1999/xlink"><title/><desc/><g fill="none" fill-rule="evenodd" id="Action-/-30---Action,-lock,-security,-password" stroke="none" stroke-linecap="round" stroke-linejoin="round" stroke-width="1"><path d="M8.25,17 L15.75,17 L13.9959292,12.5222774 C15.0497811,11.8970812 15.75,10.7914407 15.75,9.53177258 C15.75,7.58122844 14.0710678,6 12,6 C9.92893219,6 8.25,7.58122844 8.25,9.53177258 C8.25,10.7914407 8.95021893,11.8970812 10.0040708,12.5222774 L8.25,17 Z M12,22 C6.4771525,22 2,17.5228475 2,12 C2,6.4771525 6.4771525,2 12,2 C17.5228475,2 22,6.4771525 22,12 C22,17.5228475 17.5228475,22 12,22 Z" id="Path" stroke="#000000" stroke-width="2"/></g></svg>